<svg xmlns="http://www.w3.org/2000/svg" enable-background="new 0 0 512 512" viewBox="0 0 512 512" id="feather">
  <g>
    <path fill="#231f20" d="M365.51 318.78c.99-1.46 1.99-2.93 2.97-4.4-.96 1.43-1.95 2.85-2.92 4.27.14-.38.27-.77.39-1.16-6.62.77-11.2 2.02-17.23 3.31-5.86 1.44-10.91 2.65-16.96 5.1 7.61 7.53 21.19 6.66 28.98-.29-7.55 10.75-15.42 21.31-23.7 31.54.02-.07.05-.13.07-.2-6.62.77-11.2 2.02-17.23 3.31-5.86 1.44-10.91 2.65-16.96 5.1 6.53 6.47 17.47 6.74 25.37 2.29-7.84 9.13-16.02 17.95-24.63 26.33-6.57.53-11.18 1.6-17.22 2.66-5.91 1.22-11 2.25-17.14 4.47 5.36 5.72 14.09 7.05 21.54 4.74-4.84 4.25-9.78 8.38-14.88 12.34-5.11 3.97-11.58 8.42-17.14 11.82-14.96 9.47-32.77 13.03-50.27 15.4 73.58-68.49 155.09-197.49 193.68-272.41 6.58-13.12 13.07-26.34 18.15-40.13.82-2.31 1.6-4.64 2.23-7.02.32-1.34.7-2.74.87-4.14 11.9 9.18 10.84 31.24 9.03 45.11-.37 2.6-.82 5.2-1.29 7.78-9 3.81-16.14 8.85-22.92 16.31 6.9 3.75 15.6.85 20.5-4.95-3.42 14.13-8.22 27.95-13.73 41.44-5.98 1.78-10.19 3.69-15.69 5.87-5.54 2.38-10.32 4.41-15.9 7.82 8.25 5.84 20.52 3.41 27.38-3.72-.91 2.09-1.84 4.18-2.77 6.25-4.67 10.28-9.77 20.35-15.19 30.26.05-.25.1-.49.14-.75-6.45 1.68-10.81 3.55-16.61 5.67-5.6 2.24-10.43 4.14-16.09 7.4 8 5.97 20.12 3.99 27.2-2.76-6.02 10.49-12.38 20.79-19 30.91 6.89-10.31 13.45-20.85 19.67-31.58 2.09-2.18 3.66-4.81 4.44-7.8 5.7-10.17 11.11-20.51 16.19-31.01 1.56-3.29 3.09-6.61 4.59-9.93.78-1.28 1.41-2.66 1.84-4.13 8.86-20.13 16.35-40.9 20.2-62.65 4.45-24.41 2.54-58.18-30.57-54.81-28.31 4.02-57.84 29.52-78.1 48.81-38.97 38.34-70.81 83.41-96.22 131.68-6.31 12.06-12.1 24.55-17.24 37.17-8.39 20.57-15.35 42.12-18.23 64.26-.65 5.38-.33 10.98.74 16.22 1.36 6.98 3.86 13.39 5 19.61 1.22 6.08.3 12.22-3.15 17.48-.23.34-.38.73-.43 1.13-8.31 8.28-17.04 16.11-26.45 23.15-7.82 5.62-16.23 10.85-25.81 12.77 8.42-.7 16.32-4.19 23.67-8.33 2.71 2.34 5.65 4.52 8.94 6.16 25.28 12.97 54.8-1.47 73.67-19.36 2.49-2.69 7.21-5.56 5.2-9.87-1.16-2.42-4.07-3.45-6.5-2.28-2.33 1.11-4.59 2.35-7.11 3.24-7.48 2.92-15.27 4.36-23.3 5.51-9.95 1.31-20.01 1.86-30.11 2.09 4.12-3.27 8.27-6.77 12.46-10.48 8.76-1.3 17.36-3 25.92-5.18 11.47-2.86 22.71-7.05 32.53-13.78 6.59-4.29 13.69-9.72 19.73-14.72 5.22-4.47 10.29-9.09 15.24-13.83 2.96-1.68 5.47-4.04 7.14-7.01 9.59-9.65 18.7-19.77 27.39-30.25 3.02-2.07 5.46-4.89 6.81-8.38 8.5-10.69 16.6-21.71 24.37-32.93C362.95 323.55 364.52 321.34 365.51 318.78zM202.15 395.38c.37-1.97.9-5.25 1.31-7.31 1.18-5.42 2.66-11.59 4.26-16.89 1.05-3.51 2.2-7.08 3.43-10.7 1.57 13.78 9.34 27.68 20.71 33.99-2.28-9-5.51-17.49-8.6-26.11-2.56-6.66-4.85-13.39-7.72-19.94 6.47-16.82 14.68-34.46 24.18-52.2-2.53 21.18 6.21 44.73 22.92 57.06-7.32-18.65-13.12-36.89-15.1-56.74-.44-4.16-.71-8.39-.97-12.74 9.84-17.33 20.8-34.6 32.46-51.15-5.05 22.52 3.68 49.36 21.92 62.82-7.32-18.65-13.12-36.89-15.1-56.74-.49-4.61-.76-9.28-1.05-14.13 8.72-11.96 17.79-23.47 27.03-34.27-5.71 20.76 2.36 46.42 19.79 58.58-6.17-17.12-11.34-33.5-13.34-51.48-.51-4.27-.83-8.6-1.21-13.13 14.01-15.85 28.35-29.96 42.44-41.45-8.96 15.9-6.57 39.12 6.7 51.48-.91-10.92-1.96-20.77-2.06-31.4-.12-8.24.67-16.36 1.12-24.57 9.59-7.19 19.83-13.81 31.03-17.91 6.06-2.15 12.5-3.49 18.51-2.49 3.29.62 6.04 1.84 8.32 3.53-.31 1.41-.85 2.79-1.31 4.14-.85 2.27-1.85 4.49-2.88 6.68-2.05 4.4-4.29 8.72-6.6 13-33.16 59.46-71.22 116.15-110.08 171.99-22.38 31.76-45.48 63.05-70.29 92.96-8.23 9.72-16.56 19.46-25.29 28.8 1.08-6.68-.63-13.66-2.23-19.97C202.42 411.25 200.89 403.36 202.15 395.38zM231.81 466.11c-12.41 8.74-26.57 15.37-41.91 15.09-7.01-.11-14.03-1.99-20.87-4.98 1.1-.62 2.19-1.26 3.26-1.91 5.33-3.44 10.76-7.37 16.26-11.7C201.97 466.26 217.41 467.86 231.81 466.11zM119.05 430.31c-3.22-15.01-11.46-22.15-23.89-30.31-5.26-3.51-10.59-6.76-16.08-9.89-.96-.55-2.12-.78-3.3-.58-2.71.46-4.52 3.04-4.06 5.74 1.23 7.18 3.77 13.71 6.77 19.85 8.95 17.54 21.43 33.04 36.21 45.93-3.7 8.66-8.12 17.25-15.14 23.73 7.99-5.82 13.38-14.52 17.92-23.16 4.97-10.28 9.41-22.04 13.38-34.91 6.81-5.67 13.27-11.59 19.44-17.9 8.32-8.42 15.72-17.82 20.62-28.69 3.4-7.09 6.64-15.43 9.19-22.83 2.14-6.53 4.06-13.12 5.83-19.74 1.65-2.97 2.57-6.29 2.46-9.7 3.18-13.23 5.7-26.61 7.67-40.08 1.51-3.34 2.12-7.02 1.46-10.7 1.7-13.55 2.89-27.18 3.7-40.8.73-2.56.92-5.26.43-7.96.08-1.77.17-3.53.25-5.3-.08 1.73-.17 3.47-.27 5.2-.08-.41-.17-.82-.28-1.23-5.25 4.1-8.52 7.54-13 11.79-4.25 4.28-7.94 7.94-11.84 13.18 10.43 2.48 21.6-5.36 24.61-15.36-.86 13.13-2.1 26.26-3.86 39.32-.02-.07-.03-.14-.05-.22-5.25 4.1-8.52 7.54-13 11.79-4.25 4.28-7.94 7.94-11.84 13.18 8.96 2.13 18.46-3.35 22.88-11.27-1.94 11.88-4.36 23.68-7.36 35.32-5.35 3.87-8.73 7.18-13.34 11.24-4.41 4.11-8.22 7.64-12.32 12.73 7.56 2.1 15.72-1.31 20.88-7.17-1.92 6.16-4.02 12.26-6.32 18.3-2.3 6.05-5.51 13.22-8.49 19.01-7.85 15.87-21.22 28.17-34.93 39.3 27.23-96.76 29.78-249.34 23.79-333.4-1.2-14.63-2.53-29.29-5.36-43.72-.5-2.4-1.05-4.8-1.75-7.15-.43-1.34-.84-2.76-1.44-4.07 10.3 1.11 21 11.2 31.21 33.92 1.04 2.42 2.01 4.86 2.94 7.32-5.71 7.93-9.18 15.95-11.1 25.85 7.84-.38 13.77-7.39 14.94-14.89 4.42 13.85 7.51 28.15 9.82 42.54-4.18 4.63-6.78 8.45-10.35 13.17-3.49 4.92-6.53 9.13-9.51 14.94 10.08.69 19.3-7.76 21.45-17.41.31 2.26.6 4.52.88 6.78 1.36 11.23 2.26 22.5 2.78 33.79-.09-.25-.18-.51-.29-.76-4.63 4.79-7.39 8.65-11.24 13.48-3.62 4.82-6.76 8.96-9.9 14.69 9.96.95 19.3-7.09 21.82-16.56.31 12.11.22 24.24-.18 36.35.42-11.21.6-23.78.35-37.04.69-3.03.67-6.18-.24-9.21-.51-15.14-1.6-30.95-3.53-46.56-.04-.92-.16-1.83-.35-2.74-4.09-31.34-11.62-61.59-24.7-83.32-10.73-17.43-27.61-26.49-45.44-12.49-22.1 18.15-34.06 55.29-41.33 82.3-13.36 53.01-17.12 108.07-13.72 162.52.88 13.58 2.43 27.26 4.6 40.71 3.53 21.93 8.79 43.96 17.84 64.37 2.24 4.94 5.43 9.55 9.07 13.47 4.79 5.25 10.26 9.43 14.47 14.15 4.21 4.56 6.61 10.28 6.4 16.57-.02.41.06.82.22 1.19-1.41 5.74-2.97 11.44-4.73 17.08C120.46 439.46 120.07 434.91 119.05 430.31zM114.96 460.45c-.02.04-.04.08-.05.12-5.91-9.71-14.09-22.86-19.22-32.32-4.1-7.64-8.19-15.39-11.08-23.52 1.86 1.07 3.72 2.14 5.56 3.21 5.04 3.06 10.27 5.87 14.68 9.73 6.36 5.63 10.11 14.46 12.95 22.67.72 2.01 1.42 4.05 2.2 6.07C118.48 451.14 116.81 455.82 114.96 460.45zM116.23 397.72c-5.81-5.64-11.22-11.57-14.3-19.06-.7-1.88-1.96-4.96-2.68-6.93-1.81-5.24-3.75-11.28-5.14-16.64-.93-3.55-1.81-7.19-2.63-10.92 8.51 10.95 22.37 18.79 35.36 18.26-6.63-6.5-13.81-12.07-20.92-17.83-5.65-4.36-11.1-8.91-16.96-13.02-3.22-17.73-5.38-37.07-6.49-57.17 8.84 19.41 28.52 34.95 49.24 36.83-15.95-12.13-30.39-24.69-42.4-40.61-2.54-3.33-4.97-6.8-7.45-10.37-.61-19.92-.23-40.38 1.13-60.58 7.39 21.88 28.76 40.23 51.39 42.27-15.95-12.13-30.39-24.69-42.4-40.61-2.82-3.68-5.48-7.53-8.25-11.52 1.23-14.75 2.99-29.3 5.27-43.33 5.92 20.71 26.15 38.43 47.36 39.75-14.17-11.41-27.1-22.72-38.16-37.04-2.65-3.38-5.18-6.91-7.86-10.59 3.73-20.82 8.63-40.34 14.7-57.47.61 18.24 14.73 36.83 32.49 40.49-6.45-8.86-12.47-16.72-18.09-25.75-4.42-7.04-7.94-14.34-11.84-21.61 10.57-26.89 25.14-45.88 40.65-44.54.49 1.38.74 2.87 1.06 4.29.45 2.38.76 4.79 1.02 7.2.54 4.83.87 9.68 1.12 14.53 2.6 68.03-.44 136.25-4.6 204.15-2.61 38.77-6.06 77.5-11.7 115.95-1.98 12.58-4.03 25.23-6.63 37.75C125.97 407.36 120.88 402.29 116.23 397.72zM338.74 404.97c7.77 1.3 13.33-5.39 10.54-12.78C341.52 391.52 336.65 397.5 338.74 404.97zM326.66 417.32c-9.3 3.42-17.59 8.73-25.76 14.07-8.21 5.49-15.72 10.91-23.21 17.76C296.57 449.72 318.86 434.28 326.66 417.32z"></path>
  </g>
</svg>
